<svg width="10125" height="1129" xmlns="http://www.w3.org/2000/svg" xmlns:xlink="http://www.w3.org/1999/xlink" xml:space="preserve" overflow="hidden"><defs><clipPath id="clip0"><rect x="-2863" y="728" width="10125" height="1129"/></clipPath></defs><g clip-path="url(#clip0)" transform="translate(2863 -728)"><path d="M-2298.99 1292-1854.02 1292M-1194.77 1292-700.347 1292M-403.702 1292-8.17529 1292M249.065 1292 595.152 1292M1247.93 1292 1594.01 1292M1851.26 1292 2296.22 1292M2955.49 1292 3449.9 1292M3707.15 1292 4102.67 1292M4359.92 1292 4706.01 1292" stroke="#000000" stroke-width="19.774" stroke-miterlimit="8" fill="none" fill-rule="evenodd"/><path d="M-2704.99 1292.02C-2639.06 1292.02-2606.09 1258.99-2606.09 1192.93L-2606.09 1173.11C-2606.09 1107.05-2573.12 1074.02-2507.19 1074.02L-2348.79 1074.02C-2282.86 1074.02-2249.89 1107.05-2249.89 1173.11L-2249.89 1192.93C-2249.89 1258.99-2216.92 1292.02-2150.99 1292.02" stroke="#000000" stroke-width="19.774" stroke-miterlimit="8" fill="#000000" fill-rule="evenodd" fill-opacity="0"/><path d="M-2332.62 1146.04C-2316.25 1146.04-2302.99 1164.67-2302.99 1187.66L-2302.99 1437.41C-2302.99 1460.4-2316.25 1479.04-2332.62 1479.04L-2530.35 1479.04C-2546.72 1479.04-2559.99 1460.4-2559.99 1437.41L-2559.99 1187.66C-2559.99 1164.67-2546.72 1146.04-2530.35 1146.04Z" fill="#DAE9E5" fill-rule="evenodd"/><text font-family="Microsoft JhengHei,Microsoft JhengHei_MSFontService,sans-serif" font-weight="400" font-size="119" transform="matrix(1 0 0 1 -2491.8 1283)">介</text><text font-family="Microsoft JhengHei,Microsoft JhengHei_MSFontService,sans-serif" font-weight="400" font-size="119" transform="matrix(1 0 0 1 -2491.8 1426)">詞</text><path d="M-1953.11 1292.01C-2019.01 1292.01-2051.97 1324.99-2051.97 1390.94L-2051.97 1653.09C-2051.97 1719.04-2019.01 1752.01-1953.11 1752.01L-1096.26 1752.01C-1030.35 1752.01-997.397 1719.04-997.397 1653.09L-997.397 1390.94C-997.397 1324.99-1030.35 1292.01-1096.26 1292.01M-997.397 1440.4-947.967 1390.94M-997.397 1440.4-1046.83 1390.94" stroke="#000000" stroke-width="19.774" stroke-miterlimit="8" fill="#000000" fill-rule="evenodd" fill-opacity="0"/><path d="M-1853.96 1291.52C-1755.12 1291.52-1755.12 1148.02-1656.28 1148.02M-1194.96 1291.52C-1293.8 1291.52-1293.8 1148.02-1392.64 1148.02M-1853.96 1291.52C-1755.12 1291.52-1755.12 1435.02-1656.28 1435.02M-1194.96 1291.52C-1293.8 1291.52-1293.8 1435.02-1392.64 1435.02" stroke="#000000" stroke-width="19.774" stroke-miterlimit="8" fill="#000000" fill-rule="evenodd" fill-opacity="0"/><path d="M-1656.95 1148.02-1647.13 1148.02M-1402.77 1148.02-1392.95 1148.02M-1656.95 1435.02-1656.95 1435.02M-1392.95 1435.02-1392.95 1435.02" stroke="#000000" stroke-width="19.774" stroke-miterlimit="8" fill="#000000" fill-rule="evenodd" fill-opacity="0"/><path d="M-1432.6 1030.02C-1416.23 1030.02-1402.95 1043.29-1402.95 1059.65L-1402.95 1237.4C-1402.95 1253.76-1416.23 1267.02-1432.6 1267.02L-1617.3 1267.02C-1633.68 1267.02-1646.95 1253.76-1646.95 1237.4L-1646.95 1059.65C-1646.95 1043.29-1633.68 1030.02-1617.3 1030.02Z" fill="#DAE9E5" fill-rule="evenodd"/><text font-family="Microsoft JhengHei,Microsoft JhengHei_MSFontService,sans-serif" font-weight="400" font-size="119" transform="matrix(1 0 0 1 -1646.27 1194)">地名</text><path d="M-1422.65 1317.03C-1406.25 1317.03-1392.95 1330.3-1392.95 1346.66L-1392.95 1524.41C-1392.95 1540.77-1406.25 1554.03-1422.65 1554.03L-1627.26 1554.03C-1643.66 1554.03-1656.95 1540.77-1656.95 1524.41L-1656.95 1346.66C-1656.95 1330.3-1643.66 1317.03-1627.26 1317.03Z" fill="#DAE9E5" fill-rule="evenodd"/><text font-family="Microsoft JhengHei,Microsoft JhengHei_MSFontService,sans-serif" font-weight="400" font-size="119" transform="matrix(1 0 0 1 -1643.35 1484)">名</text><text font-family="Microsoft JhengHei,Microsoft JhengHei_MSFontService,sans-serif" font-weight="400" font-size="119" transform="matrix(1 0 0 1 -1524.76 1484)">詞</text><path d="M-848.923 1292.02C-783.035 1292.02-750.09 1258.99-750.09 1192.93L-750.09 1173.11C-750.09 1107.05-717.146 1074.02-651.256 1074.02L-453.59 1074.02C-387.701 1074.02-354.756 1107.05-354.756 1173.11L-354.756 1192.93C-354.756 1258.99-321.812 1292.02-255.923 1292.02" stroke="#000000" stroke-width="19.774" stroke-miterlimit="8" fill="#000000" fill-rule="evenodd" fill-opacity="0"/><path d="M-433.617 1173.03C-417.214 1173.03-403.917 1186.35-403.917 1202.78L-403.917 1381.28C-403.917 1397.71-417.214 1411.03-433.617 1411.03L-671.218 1411.03C-687.621 1411.03-700.917 1397.71-700.917 1381.28L-700.917 1202.78C-700.917 1186.35-687.621 1173.03-671.218 1173.03Z" fill="#DAE9E5" fill-rule="evenodd"/><text font-family="Microsoft JhengHei,Microsoft JhengHei_MSFontService,sans-serif" font-weight="400" font-size="119" transform="matrix(1 0 0 1 -727.463 1338)">“</text><text font-family="Microsoft JhengHei,Microsoft JhengHei_MSFontService,sans-serif" font-weight="400" font-size="119" transform="matrix(1 0 0 1 -608.869 1338)">國</text><text font-family="Microsoft JhengHei,Microsoft JhengHei_MSFontService,sans-serif" font-weight="400" font-size="119" transform="matrix(1 0 0 1 -490.276 1338)">”</text><path d="M-156.898 1292.02C-90.9641 1292.02-57.9969 1258.99-57.9969 1192.93L-57.9969 1173.11C-57.9969 1107.05-25.0303 1074.02 40.9042 1074.02L199.3 1074.02C265.234 1074.02 298.201 1107.05 298.201 1173.11L298.201 1192.93C298.201 1258.99 331.169 1292.02 397.102 1292.02" stroke="#000000" stroke-width="19.774" stroke-miterlimit="8" fill="#000000" fill-rule="evenodd" fill-opacity="0"/><path d="M219.471 1173.03C235.839 1173.03 249.107 1186.35 249.107 1202.78L249.107 1381.28C249.107 1397.71 235.839 1411.03 219.471 1411.03L21.7434 1411.03C5.37582 1411.03-7.89247 1397.71-7.89247 1381.28L-7.89247 1202.78C-7.89247 1186.35 5.37582 1173.03 21.7434 1173.03Z" fill="#DAE9E5" fill-rule="evenodd"/><text font-family="Microsoft JhengHei,Microsoft JhengHei_MSFontService,sans-serif" font-weight="400" font-size="119" transform="matrix(1 0 0 1 -0.0415026 1335)">副</text><text font-family="Microsoft JhengHei,Microsoft JhengHei_MSFontService,sans-serif" font-weight="400" font-size="119" transform="matrix(1 0 0 1 118.552 1335)">詞</text><path d="M595.13 1291.52C694.046 1291.52 694.046 1148.02 792.962 1148.02M1248.13 1291.52C1149.21 1291.52 1149.21 1148.02 1050.3 1148.02M595.13 1291.52C694.046 1291.52 694.046 1435.02 792.962 1435.02M1248.13 1291.52C1149.21 1291.52 1149.21 1435.02 1050.3 1435.02" stroke="#000000" stroke-width="19.774" stroke-miterlimit="8" fill="#000000" fill-rule="evenodd" fill-opacity="0"/><path d="M793.137 1148.02 793.137 1148.02M1050.14 1148.02 1050.14 1148.02M793.137 1435.02 793.137 1435.02M1050.14 1435.02 1050.14 1435.02" stroke="#000000" stroke-width="19.774" stroke-miterlimit="8" fill="#000000" fill-rule="evenodd" fill-opacity="0"/><path d="M1020.5 1030.02C1036.87 1030.02 1050.14 1043.29 1050.14 1059.65L1050.14 1237.4C1050.14 1253.76 1036.87 1267.02 1020.5 1267.02L822.773 1267.02C806.405 1267.02 793.137 1253.76 793.137 1237.4L793.137 1059.65C793.137 1043.29 806.405 1030.02 822.773 1030.02Z" fill="#DAE9E5" fill-rule="evenodd"/><text font-family="Microsoft JhengHei,Microsoft JhengHei_MSFontService,sans-serif" font-weight="400" font-size="119" transform="matrix(1 0 0 1 801.372 1194)">動詞</text><path d="M1020.5 1317.03C1036.87 1317.03 1050.14 1330.3 1050.14 1346.66L1050.14 1524.41C1050.14 1540.77 1036.87 1554.03 1020.5 1554.03L822.773 1554.03C806.405 1554.03 793.137 1540.77 793.137 1524.41L793.137 1346.66C793.137 1330.3 806.405 1317.03 822.773 1317.03Z" fill="#DAE9E5" fill-rule="evenodd"/><text font-family="Microsoft JhengHei,Microsoft JhengHei_MSFontService,sans-serif" font-weight="400" font-size="119" transform="matrix(1 0 0 1 804.412 1481)">介詞</text><path d="M1446.16 1292.02C1512.09 1292.02 1545.06 1258.99 1545.06 1192.93L1545.06 1173.11C1545.06 1107.05 1578.03 1074.02 1643.96 1074.02L1802.36 1074.02C1868.29 1074.02 1901.26 1107.05 1901.26 1173.11L1901.26 1192.93C1901.26 1258.99 1934.23 1292.02 2000.16 1292.02" stroke="#000000" stroke-width="19.774" stroke-miterlimit="8" fill="#000000" fill-rule="evenodd" fill-opacity="0"/><path d="M1821.53 1173.03C1837.9 1173.03 1851.17 1186.35 1851.17 1202.78L1851.17 1381.28C1851.17 1397.71 1837.9 1411.03 1821.53 1411.03L1623.8 1411.03C1607.43 1411.03 1594.17 1397.71 1594.17 1381.28L1594.17 1202.78C1594.17 1186.35 1607.43 1173.03 1623.8 1173.03Z" fill="#DAE9E5" fill-rule="evenodd"/><text font-family="Microsoft JhengHei,Microsoft JhengHei_MSFontService,sans-serif" font-weight="400" font-size="119" transform="matrix(1 0 0 1 1606.81 1338)">介詞</text><path d="M2197.14 1292.01C2131.17 1292.01 2098.18 1324.99 2098.18 1390.94L2098.18 1653.09C2098.18 1719.04 2131.17 1752.01 2197.14 1752.01L3054.76 1752.01C3120.73 1752.01 3153.71 1719.04 3153.71 1653.09L3153.71 1390.94C3153.71 1324.99 3120.73 1292.01 3054.76 1292.01M3153.71 1440.4 3203.18 1390.94M3153.71 1440.4 3104.23 1390.94" stroke="#000000" stroke-width="19.774" stroke-miterlimit="8" fill="#000000" fill-rule="evenodd" fill-opacity="0"/><path d="M2296.19 1291.52C2395.18 1291.52 2395.18 1148.02 2494.18 1148.02M2956.19 1291.52C2857.2 1291.52 2857.2 1148.02 2758.21 1148.02M2296.19 1291.52C2395.18 1291.52 2395.18 1435.02 2494.18 1435.02M2956.19 1291.52C2857.2 1291.52 2857.2 1435.02 2758.21 1435.02" stroke="#000000" stroke-width="19.774" stroke-miterlimit="8" fill="#000000" fill-rule="evenodd" fill-opacity="0"/><path d="M2494.2 1148.02 2504.02 1148.02M2748.38 1148.02 2758.2 1148.02M2494.2 1435.02 2494.2 1435.02M2758.2 1435.02 2758.2 1435.02" stroke="#000000" stroke-width="19.774" stroke-miterlimit="8" fill="#000000" fill-rule="evenodd" fill-opacity="0"/><path d="M2718.55 1030.02C2734.92 1030.02 2748.2 1043.29 2748.2 1059.65L2748.2 1237.4C2748.2 1253.76 2734.92 1267.02 2718.55 1267.02L2533.85 1267.02C2517.47 1267.02 2504.2 1253.76 2504.2 1237.4L2504.2 1059.65C2504.2 1043.29 2517.47 1030.02 2533.85 1030.02Z" fill="#DAE9E5" fill-rule="evenodd"/><text font-family="Microsoft JhengHei,Microsoft JhengHei_MSFontService,sans-serif" font-weight="400" font-size="119" transform="matrix(1 0 0 1 2507.17 1194)">地名</text><path d="M2728.5 1317.03C2744.9 1317.03 2758.2 1330.3 2758.2 1346.66L2758.2 1524.41C2758.2 1540.77 2744.9 1554.03 2728.5 1554.03L2523.89 1554.03C2507.49 1554.03 2494.2 1540.77 2494.2 1524.41L2494.2 1346.66C2494.2 1330.3 2507.49 1317.03 2523.89 1317.03Z" fill="#DAE9E5" fill-rule="evenodd"/><text font-family="Microsoft JhengHei,Microsoft JhengHei_MSFontService,sans-serif" font-weight="400" font-size="119" transform="matrix(1 0 0 1 2505.85 1481)">名詞</text><path d="M3302.23 1292.02C3368.16 1292.02 3401.13 1258.99 3401.13 1192.93L3401.13 1173.11C3401.13 1107.05 3434.1 1074.02 3500.03 1074.02L3658.43 1074.02C3724.36 1074.02 3757.33 1107.05 3757.33 1173.11L3757.33 1192.93C3757.33 1258.99 3790.29 1292.02 3856.23 1292.02" stroke="#000000" stroke-width="19.774" stroke-miterlimit="8" fill="#000000" fill-rule="evenodd" fill-opacity="0"/><path d="M3677.6 1173.03C3693.96 1173.03 3707.23 1186.35 3707.23 1202.78L3707.23 1381.28C3707.23 1397.71 3693.96 1411.03 3677.6 1411.03L3479.87 1411.03C3463.5 1411.03 3450.23 1397.71 3450.23 1381.28L3450.23 1202.78C3450.23 1186.35 3463.5 1173.03 3479.87 1173.03Z" fill="#DAE9E5" fill-rule="evenodd"/><text font-family="Microsoft JhengHei,Microsoft JhengHei_MSFontService,sans-serif" font-weight="400" font-size="119" transform="matrix(1 0 0 1 3461.93 1338)">副</text><text font-family="Microsoft JhengHei,Microsoft JhengHei_MSFontService,sans-serif" font-weight="400" font-size="119" transform="matrix(1 0 0 1 3580.52 1338)">詞</text><path d="M3955.25 1292.02C4021.07 1292.02 4053.97 1258.99 4053.97 1192.93L4053.97 1173.11C4053.97 1107.05 4086.88 1074.02 4152.7 1074.02L4310.81 1074.02C4376.62 1074.02 4409.53 1107.05 4409.53 1173.11L4409.53 1192.93C4409.53 1258.99 4442.44 1292.02 4508.25 1292.02" stroke="#000000" stroke-width="19.774" stroke-miterlimit="8" fill="#000000" fill-rule="evenodd" fill-opacity="0"/><path d="M4330.62 1173.03C4346.99 1173.03 4360.26 1186.35 4360.26 1202.78L4360.26 1381.28C4360.26 1397.71 4346.99 1411.03 4330.62 1411.03L4132.89 1411.03C4116.53 1411.03 4103.26 1397.71 4103.26 1381.28L4103.26 1202.78C4103.26 1186.35 4116.53 1173.03 4132.89 1173.03Z" fill="#DAE9E5" fill-rule="evenodd"/><text font-family="Microsoft JhengHei,Microsoft JhengHei_MSFontService,sans-serif" font-weight="400" font-size="119" transform="matrix(1 0 0 1 4111.56 1338)">動詞</text><path d="M4805.18 1054.83C4805.18 988.952 4838.14 956.011 4904.08 956.011M6905.38 1054.83C6905.38 988.952 6872.42 956.011 6806.48 956.011M4706.28 1292.01C4805.18 1292.01 4805.18 1341.42 4904.08 1341.42M7004.28 1292.01C6905.38 1292.01 6905.38 1341.42 6806.48 1341.42M4805.18 1529.19C4805.18 1595.07 4838.14 1628.01 4904.08 1628.01M6905.38 1529.19C6905.38 1595.07 6872.42 1628.01 6806.48 1628.01M4706.28 1292.01C4772.21 1292.01 4805.18 1259.07 4805.18 1193.19L4805.18 1054.83M7004.28 1292.01C6938.35 1292.01 6905.38 1259.07 6905.38 1193.19L6905.38 1054.83M4706.28 1292.01C4772.21 1292.01 4805.18 1324.95 4805.18 1390.83L4805.18 1529.19M7004.28 1292.01C6938.35 1292.01 6905.38 1324.95 6905.38 1390.83L6905.38 1529.19" stroke="#000000" stroke-width="19.774" stroke-miterlimit="8" fill="#000000" fill-rule="evenodd" fill-opacity="0"/><path d="M4904.29 956.011 4904.29 956.011M6806.29 956.011 6806.29 956.011M4904.29 1341.42 5723.43 1341.42M5987.16 1341.42 6806.29 1341.42M4904.29 1628.01 5510.84 1628.01M6298.62 1628.01 6806.29 1628.01" stroke="#000000" stroke-width="19.774" stroke-miterlimit="8" fill="#000000" fill-rule="evenodd" fill-opacity="0"/><path d="M5168.29 956.011 5415.4 956.011M5672.56 956.011 6018.53 956.011M6282.17 956.011 6529.29 956.011" stroke="#000000" stroke-width="19.774" stroke-miterlimit="8" fill="none" fill-rule="evenodd"/><path d="M5138.59 837.015C5154.99 837.015 5168.29 850.279 5168.29 866.64L5168.29 1044.39C5168.29 1060.75 5154.99 1074.02 5138.59 1074.02L4933.98 1074.02C4917.58 1074.02 4904.29 1060.75 4904.29 1044.39L4904.29 866.64C4904.29 850.279 4917.58 837.015 4933.98 837.015Z" fill="#DAE9E5" fill-rule="evenodd"/><text font-family="Microsoft JhengHei,Microsoft JhengHei_MSFontService,sans-serif" font-weight="400" font-size="119" transform="matrix(1 0 0 1 4919.1 1001)">方位</text><path d="M5267.3 956.011C5333.23 956.011 5366.2 922.981 5366.2 856.92L5366.2 837.102C5366.2 771.042 5399.17 738.011 5465.1 738.011L5623.5 738.011C5689.43 738.011 5722.4 771.042 5722.4 837.102L5722.4 856.92C5722.4 922.981 5755.37 956.011 5821.3 956.011" stroke="#000000" stroke-width="19.774" stroke-miterlimit="8" fill="#000000" fill-rule="evenodd" fill-opacity="0"/><path d="M5642.67 837.015C5659.04 837.015 5672.3 850.279 5672.3 866.64L5672.3 1044.39C5672.3 1060.75 5659.04 1074.02 5642.67 1074.02L5444.94 1074.02C5428.57 1074.02 5415.31 1060.75 5415.31 1044.39L5415.31 866.64C5415.31 850.279 5428.57 837.015 5444.94 837.015Z" fill="#DAE9E5" fill-rule="evenodd"/><text font-family="Microsoft JhengHei,Microsoft JhengHei_MSFontService,sans-serif" font-weight="400" font-size="119" transform="matrix(1 0 0 1 5423.03 1001)">動詞</text><path d="M6019.22 956.015C5953.29 956.015 5920.32 988.893 5920.32 1054.65L5920.32 1074.38C5920.32 1140.14 5953.29 1173.01 6019.22 1173.01L6282.98 1173.01C6348.91 1173.01 6381.88 1140.14 6381.88 1074.38L6381.88 1054.65C6381.88 988.893 6348.91 956.015 6282.98 956.015M6381.88 1103.97 6431.32 1054.65M6381.88 1103.97 6332.43 1054.65" stroke="#000000" stroke-width="19.774" stroke-miterlimit="8" fill="#000000" fill-rule="evenodd" fill-opacity="0"/><path d="M6252.63 837.015C6269.03 837.015 6282.33 850.279 6282.33 866.64L6282.33 1044.39C6282.33 1060.75 6269.03 1074.02 6252.63 1074.02L6048.02 1074.02C6031.62 1074.02 6018.33 1060.75 6018.33 1044.39L6018.33 866.64C6018.33 850.279 6031.62 837.015 6048.02 837.015Z" fill="#DAE9E5" fill-rule="evenodd"/><text font-family="Microsoft JhengHei,Microsoft JhengHei_MSFontService,sans-serif" font-weight="400" font-size="119" transform="matrix(1 0 0 1 6033.72 1001)">數</text><text font-family="Microsoft JhengHei,Microsoft JhengHei_MSFontService,sans-serif" font-weight="400" font-size="119" transform="matrix(1 0 0 1 6152.31 1001)">詞</text><path d="M6776.67 837.015C6793.06 837.015 6806.35 850.279 6806.35 866.64L6806.35 1044.39C6806.35 1060.75 6793.06 1074.02 6776.67 1074.02L6559.02 1074.02C6542.63 1074.02 6529.35 1060.75 6529.35 1044.39L6529.35 866.64C6529.35 850.279 6542.63 837.015 6559.02 837.015Z" fill="#DAE9E5" fill-rule="evenodd"/><text font-family="Microsoft JhengHei,Microsoft JhengHei_MSFontService,sans-serif" font-weight="400" font-size="119" transform="matrix(1 0 0 1 6553.68 1001)">量詞</text><path d="M5957.62 1223.03C5974.02 1223.03 5987.32 1236.29 5987.32 1252.65L5987.32 1430.4C5987.32 1446.77 5974.02 1460.03 5957.62 1460.03L5753.01 1460.03C5736.61 1460.03 5723.32 1446.77 5723.32 1430.4L5723.32 1252.65C5723.32 1236.29 5736.61 1223.03 5753.01 1223.03Z" fill="#DAE9E5" fill-rule="evenodd"/><text font-family="Microsoft JhengHei,Microsoft JhengHei_MSFontService,sans-serif" font-weight="400" font-size="119" transform="matrix(1 0 0 1 5741.94 1387)">方位</text><path d="M5774.31 1628.04 6022.31 1628.04" stroke="#000000" stroke-width="19.774" stroke-miterlimit="8" fill="none" fill-rule="evenodd"/><path d="M5511.2 1628.04C5445.27 1628.04 5412.31 1661.07 5412.31 1727.13L5412.31 1746.95C5412.31 1813.01 5445.27 1846.04 5511.2 1846.04L5774.97 1846.04C5840.89 1846.04 5873.86 1813.01 5873.86 1746.95L5873.86 1727.13C5873.86 1661.07 5840.89 1628.04 5774.97 1628.04M5873.86 1776.68 5923.31 1727.13M5873.86 1776.68 5824.41 1727.13" stroke="#000000" stroke-width="19.774" stroke-miterlimit="8" fill="#000000" fill-rule="evenodd" fill-opacity="0"/><path d="M5744.73 1509.04C5761.06 1509.04 5774.31 1522.36 5774.31 1538.79L5774.31 1717.29C5774.31 1733.72 5761.06 1747.04 5744.73 1747.04L5540.89 1747.04C5524.55 1747.04 5511.31 1733.72 5511.31 1717.29L5511.31 1538.79C5511.31 1522.36 5524.55 1509.04 5540.89 1509.04Z" fill="#DAE9E5" fill-rule="evenodd"/><text font-family="Microsoft JhengHei,Microsoft JhengHei_MSFontService,sans-serif" font-weight="400" font-size="119" transform="matrix(1 0 0 1 5525.71 1674)">數</text><text font-family="Microsoft JhengHei,Microsoft JhengHei_MSFontService,sans-serif" font-weight="400" font-size="119" transform="matrix(1 0 0 1 5644.31 1674)">詞</text><path d="M6269.65 1509.04C6286.04 1509.04 6299.33 1522.36 6299.33 1538.79L6299.33 1717.29C6299.33 1733.72 6286.04 1747.04 6269.65 1747.04L6052.01 1747.04C6035.62 1747.04 6022.33 1733.72 6022.33 1717.29L6022.33 1538.79C6022.33 1522.36 6035.62 1509.04 6052.01 1509.04Z" fill="#DAE9E5" fill-rule="evenodd"/><text font-family="Microsoft JhengHei,Microsoft JhengHei_MSFontService,sans-serif" font-weight="400" font-size="119" transform="matrix(1 0 0 1 6040.05 1674)">量詞</text><path d="M-2556.76 1292-2803.99 1292M7004.19 1292 7202.01 1292" stroke="#000000" stroke-width="19.774" stroke-miterlimit="8" fill="none" fill-rule="evenodd"/><path d="M-2753.99 1291.5C-2753.99 1318.84-2776.16 1341-2803.49 1341-2830.83 1341-2852.99 1318.84-2852.99 1291.5-2852.99 1264.17-2830.83 1242-2803.49 1242-2776.16 1242-2753.99 1264.17-2753.99 1291.5Z" stroke="#000000" stroke-width="19.774" stroke-miterlimit="8" fill="#6B6659" fill-rule="evenodd"/><path d="M7251.01 1291.5C7251.01 1318.84 7228.84 1341 7201.51 1341 7174.17 1341 7152.01 1318.84 7152.01 1291.5 7152.01 1264.17 7174.17 1242 7201.51 1242 7228.84 1242 7251.01 1264.17 7251.01 1291.5Z" stroke="#000000" stroke-width="19.774" stroke-miterlimit="8" fill="#6B6659" fill-rule="evenodd"/></g></svg>